{
    "asset" : {
        "generator" : "Khronos glTF Blender I/O v1.7.33",
        "version" : "2.0"
    },
    "scene" : 0,
    "scenes" : [
        {
            "name" : "Scene",
            "nodes" : [
                0,
                1,
                2
            ]
        }
    ],
    "nodes" : [
        {
            "mesh" : 0,
            "name" : "Dice"
        },
        {
            "mesh" : 1,
            "name" : "WoodenCar"
        },
        {
            "mesh" : 2,
            "name" : "Toybox",
            "translation" : [
                0,
                0,
                14.162672996520996
            ]
        }
    ],
    "materials" : [
        {
            "doubleSided" : true,
            "name" : "Toon.001",
            "pbrMetallicRoughness" : {
                "baseColorFactor" : [
                    0.34952399134635925,
                    0,
                    0.004329000134021044,
                    1
                ],
                "metallicFactor" : 0,
                "roughnessFactor" : 0.5
            }
        },
        {
            "name" : "DicePip",
            "pbrMetallicRoughness" : {
                "metallicFactor" : 0,
                "roughnessFactor" : 0.5
            }
        },
        {
            "doubleSided" : true,
            "name" : "ToonWood",
            "pbrMetallicRoughness" : {
                "baseColorFactor" : [
                    0.6104959845542908,
                    0.3371640145778656,
                    0.1589609980583191,
                    1
                ],
                "metallicFactor" : 0,
                "roughnessFactor" : 0.5
            }
        },
        {
            "doubleSided" : true,
            "name" : "Wheel",
            "pbrMetallicRoughness" : {
                "baseColorFactor" : [
                    0.48834800720214844,
                    0.5196269750595093,
                    0.5511019825935364,
                    1
                ],
                "metallicFactor" : 0,
                "roughnessFactor" : 0.5
            }
        },
        {
            "doubleSided" : true,
            "name" : "ToonWoodDark",
            "pbrMetallicRoughness" : {
                "baseColorFactor" : [
                    0.28906700015068054,
                    0.15964500606060028,
                    0.0752670019865036,
                    1
                ],
                "metallicFactor" : 0,
                "roughnessFactor" : 0.30000001192092896
            }
        },
        {
            "doubleSided" : true,
            "name" : "ToonWood.001",
            "pbrMetallicRoughness" : {
                "baseColorFactor" : [
                    0.6104959845542908,
                    0.3371640145778656,
                    0.1589609980583191,
                    1
                ],
                "metallicFactor" : 0,
                "roughnessFactor" : 0.5
            }
        },
        {
            "doubleSided" : true,
            "name" : "ToonBlack",
            "pbrMetallicRoughness" : {
                "baseColorFactor" : [
                    0,
                    0,
                    0,
                    1
                ],
                "metallicFactor" : 0,
                "roughnessFactor" : 0.5
            }
        },
        {
            "doubleSided" : true,
            "name" : "Cobblestone.001",
            "pbrMetallicRoughness" : {
                "baseColorFactor" : [
                    0.08588600158691406,
                    0.10732900351285934,
                    0.12370800226926804,
                    1
                ],
                "metallicFactor" : 0,
                "roughnessFactor" : 0.5
            }
        },
        {
            "doubleSided" : true,
            "name" : "Cobblestone",
            "pbrMetallicRoughness" : {
                "baseColorFactor" : [
                    0.15967799723148346,
                    0.20118699967861176,
                    0.23301300406455994,
                    1
                ],
                "metallicFactor" : 0,
                "roughnessFactor" : 0.5
            }
        },
        {
            "doubleSided" : true,
            "name" : "GateBars",
            "pbrMetallicRoughness" : {
                "baseColorFactor" : [
                    0.030375000089406967,
                    0.03405499830842018,
                    0.04954800009727478,
                    1
                ],
                "metallicFactor" : 0,
                "roughnessFactor" : 0.5
            }
        }
    ],
    "meshes" : [
        {
            "name" : "Cube.037",
            "primitives" : [
                {
                    "attributes" : {
                        "POSITION" : 0,
                        "NORMAL" : 1,
                        "TEXCOORD_0" : 2
                    },
                    "indices" : 3,
                    "material" : 0
                },
                {
                    "attributes" : {
                        "POSITION" : 4,
                        "NORMAL" : 5,
                        "TEXCOORD_0" : 6
                    },
                    "indices" : 7,
                    "material" : 1
                }
            ]
        },
        {
            "name" : "Cube.001",
            "primitives" : [
                {
                    "attributes" : {
                        "POSITION" : 8,
                        "NORMAL" : 9,
                        "TEXCOORD_0" : 10
                    },
                    "indices" : 11,
                    "material" : 2
                },
                {
                    "attributes" : {
                        "POSITION" : 12,
                        "NORMAL" : 13,
                        "TEXCOORD_0" : 14
                    },
                    "indices" : 15,
                    "material" : 3
                }
            ]
        },
        {
            "name" : "Cube.023",
            "primitives" : [
                {
                    "attributes" : {
                        "POSITION" : 16,
                        "NORMAL" : 17,
                        "TEXCOORD_0" : 18
                    },
                    "indices" : 19,
                    "material" : 4
                },
                {
                    "attributes" : {
                        "POSITION" : 20,
                        "NORMAL" : 21,
                        "TEXCOORD_0" : 22
                    },
                    "indices" : 23,
                    "material" : 5
                },
                {
                    "attributes" : {
                        "POSITION" : 24,
                        "NORMAL" : 25,
                        "TEXCOORD_0" : 26
                    },
                    "indices" : 27,
                    "material" : 6
                },
                {
                    "attributes" : {
                        "POSITION" : 28,
                        "NORMAL" : 29,
                        "TEXCOORD_0" : 30
                    },
                    "indices" : 31,
                    "material" : 7
                },
                {
                    "attributes" : {
                        "POSITION" : 32,
                        "NORMAL" : 33,
                        "TEXCOORD_0" : 34
                    },
                    "indices" : 35,
                    "material" : 8
                },
                {
                    "attributes" : {
                        "POSITION" : 36,
                        "NORMAL" : 37,
                        "TEXCOORD_0" : 38
                    },
                    "indices" : 39,
                    "material" : 9
                }
            ]
        }
    ],
    "accessors" : [
        {
            "bufferView" : 0,
            "componentType" : 5126,
            "count" : 166,
            "max" : [
                0.5,
                0.5,
                0.5
            ],
            "min" : [
                -0.5,
                -0.5,
                -0.5
            ],
            "type" : "VEC3"
        },
        {
            "bufferView" : 1,
            "componentType" : 5126,
            "count" : 166,
            "type" : "VEC3"
        },
        {
            "bufferView" : 2,
            "componentType" : 5126,
            "count" : 166,
            "type" : "VEC2"
        },
        {
            "bufferView" : 3,
            "componentType" : 5123,
            "count" : 426,
            "type" : "SCALAR"
        },
        {
            "bufferView" : 4,
            "componentType" : 5126,
            "count" : 424,
            "max" : [
                0.5,
                0.5,
                0.5
            ],
            "min" : [
                -0.5,
                -0.5,
                -0.5
            ],
            "type" : "VEC3"
        },
        {
            "bufferView" : 5,
            "componentType" : 5126,
            "count" : 424,
            "type" : "VEC3"
        },
        {
            "bufferView" : 6,
            "componentType" : 5126,
            "count" : 424,
            "type" : "VEC2"
        },
        {
            "bufferView" : 7,
            "componentType" : 5123,
            "count" : 642,
            "type" : "SCALAR"
        },
        {
            "bufferView" : 8,
            "componentType" : 5126,
            "count" : 167,
            "max" : [
                1.125,
                2.7709133625030518,
                2.625
            ],
            "min" : [
                -1.125,
                0.46653228998184204,
                -2.625
            ],
            "type" : "VEC3"
        },
        {
            "bufferView" : 9,
            "componentType" : 5126,
            "count" : 167,
            "type" : "VEC3"
        },
        {
            "bufferView" : 10,
            "componentType" : 5126,
            "count" : 167,
            "type" : "VEC2"
        },
        {
            "bufferView" : 11,
            "componentType" : 5123,
            "count" : 312,
            "type" : "SCALAR"
        },
        {
            "bufferView" : 12,
            "componentType" : 5126,
            "count" : 96,
            "max" : [
                1.28306245803833,
                0.9264473915100098,
                1.7653241157531738
            ],
            "min" : [
                -1.28306245803833,
                -0.0013144612312316895,
                -2.1036157608032227
            ],
            "type" : "VEC3"
        },
        {
            "bufferView" : 13,
            "componentType" : 5126,
            "count" : 96,
            "type" : "VEC3"
        },
        {
            "bufferView" : 14,
            "componentType" : 5126,
            "count" : 96,
            "type" : "VEC2"
        },
        {
            "bufferView" : 15,
            "componentType" : 5123,
            "count" : 168,
            "type" : "SCALAR"
        },
        {
            "bufferView" : 16,
            "componentType" : 5126,
            "count" : 408,
            "max" : [
                24.499998092651367,
                30.699155807495117,
                0.039246074855327606
            ],
            "min" : [
                -24.499998092651367,
                0,
                -28.364593505859375
            ],
            "type" : "VEC3"
        },
        {
            "bufferView" : 17,
            "componentType" : 5126,
            "count" : 408,
            "type" : "VEC3"
        },
        {
            "bufferView" : 18,
            "componentType" : 5126,
            "count" : 408,
            "type" : "VEC2"
        },
        {
            "bufferView" : 19,
            "componentType" : 5123,
            "count" : 612,
            "type" : "SCALAR"
        },
        {
            "bufferView" : 20,
            "componentType" : 5126,
            "count" : 96,
            "max" : [
                24.228818893432617,
                26.391862869262695,
                -1.1768219470977783
            ],
            "min" : [
                -24.228818893432617,
                1.799398422241211,
                -27.14852523803711
            ],
            "type" : "VEC3"
        },
        {
            "bufferView" : 21,
            "componentType" : 5126,
            "count" : 96,
            "type" : "VEC3"
        },
        {
            "bufferView" : 22,
            "componentType" : 5126,
            "count" : 96,
            "type" : "VEC2"
        },
        {
            "bufferView" : 23,
            "componentType" : 5123,
            "count" : 144,
            "type" : "SCALAR"
        },
        {
            "bufferView" : 24,
            "componentType" : 5126,
            "count" : 48,
            "max" : [
                10.311076164245605,
                26.16734504699707,
                -0.8465279340744019
            ],
            "min" : [
                -10.311076164245605,
                1.9073485191256623e-06,
                -2.925938367843628
            ],
            "type" : "VEC3"
        },
        {
            "bufferView" : 25,
            "componentType" : 5126,
            "count" : 48,
            "type" : "VEC3"
        },
        {
            "bufferView" : 26,
            "componentType" : 5126,
            "count" : 48,
            "type" : "VEC2"
        },
        {
            "bufferView" : 27,
            "componentType" : 5123,
            "count" : 72,
            "type" : "SCALAR"
        },
        {
            "bufferView" : 28,
            "componentType" : 5126,
            "count" : 48,
            "max" : [
                2.5027995109558105,
                0.20000189542770386,
                1.7552591562271118
            ],
            "min" : [
                -2.5027995109558105,
                1.9073485191256623e-06,
                -3.250339984893799
            ],
            "type" : "VEC3"
        },
        {
            "bufferView" : 29,
            "componentType" : 5126,
            "count" : 48,
            "type" : "VEC3"
        },
        {
            "bufferView" : 30,
            "componentType" : 5126,
            "count" : 48,
            "type" : "VEC2"
        },
        {
            "bufferView" : 31,
            "componentType" : 5123,
            "count" : 84,
            "type" : "SCALAR"
        },
        {
            "bufferView" : 32,
            "componentType" : 5126,
            "count" : 66,
            "max" : [
                2.499999761581421,
                8.15000057220459,
                0.003976704087108374
            ],
            "min" : [
                -2.499999761581421,
                0.1500018984079361,
                -1.4990583658218384
            ],
            "type" : "VEC3"
        },
        {
            "bufferView" : 33,
            "componentType" : 5126,
            "count" : 66,
            "type" : "VEC3"
        },
        {
            "bufferView" : 34,
            "componentType" : 5126,
            "count" : 66,
            "type" : "VEC2"
        },
        {
            "bufferView" : 35,
            "componentType" : 5123,
            "count" : 120,
            "type" : "SCALAR"
        },
        {
            "bufferView" : 36,
            "componentType" : 5126,
            "count" : 456,
            "max" : [
                1.835650086402893,
                4.871853828430176,
                -0.29593130946159363
            ],
            "min" : [
                -1.8356499671936035,
                -0.03875827416777611,
                -0.38627222180366516
            ],
            "type" : "VEC3"
        },
        {
            "bufferView" : 37,
            "componentType" : 5126,
            "count" : 456,
            "type" : "VEC3"
        },
        {
            "bufferView" : 38,
            "componentType" : 5126,
            "count" : 456,
            "type" : "VEC2"
        },
        {
            "bufferView" : 39,
            "componentType" : 5123,
            "count" : 684,
            "type" : "SCALAR"
        }
    ],
    "bufferViews" : [
        {
            "buffer" : 0,
            "byteLength" : 1992,
            "byteOffset" : 0
        },
        {
            "buffer" : 0,
            "byteLength" : 1992,
            "byteOffset" : 1992
        },
        {
            "buffer" : 0,
            "byteLength" : 1328,
            "byteOffset" : 3984
        },
        {
            "buffer" : 0,
            "byteLength" : 852,
            "byteOffset" : 5312
        },
        {
            "buffer" : 0,
            "byteLength" : 5088,
            "byteOffset" : 6164
        },
        {
            "buffer" : 0,
            "byteLength" : 5088,
            "byteOffset" : 11252
        },
        {
            "buffer" : 0,
            "byteLength" : 3392,
            "byteOffset" : 16340
        },
        {
            "buffer" : 0,
            "byteLength" : 1284,
            "byteOffset" : 19732
        },
        {
            "buffer" : 0,
            "byteLength" : 2004,
            "byteOffset" : 21016
        },
        {
            "buffer" : 0,
            "byteLength" : 2004,
            "byteOffset" : 23020
        },
        {
            "buffer" : 0,
            "byteLength" : 1336,
            "byteOffset" : 25024
        },
        {
            "buffer" : 0,
            "byteLength" : 624,
            "byteOffset" : 26360
        },
        {
            "buffer" : 0,
            "byteLength" : 1152,
            "byteOffset" : 26984
        },
        {
            "buffer" : 0,
            "byteLength" : 1152,
            "byteOffset" : 28136
        },
        {
            "buffer" : 0,
            "byteLength" : 768,
            "byteOffset" : 29288
        },
        {
            "buffer" : 0,
            "byteLength" : 336,
            "byteOffset" : 30056
        },
        {
            "buffer" : 0,
            "byteLength" : 4896,
            "byteOffset" : 30392
        },
        {
            "buffer" : 0,
            "byteLength" : 4896,
            "byteOffset" : 35288
        },
        {
            "buffer" : 0,
            "byteLength" : 3264,
            "byteOffset" : 40184
        },
        {
            "buffer" : 0,
            "byteLength" : 1224,
            "byteOffset" : 43448
        },
        {
            "buffer" : 0,
            "byteLength" : 1152,
            "byteOffset" : 44672
        },
        {
            "buffer" : 0,
            "byteLength" : 1152,
            "byteOffset" : 45824
        },
        {
            "buffer" : 0,
            "byteLength" : 768,
            "byteOffset" : 46976
        },
        {
            "buffer" : 0,
            "byteLength" : 288,
            "byteOffset" : 47744
        },
        {
            "buffer" : 0,
            "byteLength" : 576,
            "byteOffset" : 48032
        },
        {
            "buffer" : 0,
            "byteLength" : 576,
            "byteOffset" : 48608
        },
        {
            "buffer" : 0,
            "byteLength" : 384,
            "byteOffset" : 49184
        },
        {
            "buffer" : 0,
            "byteLength" : 144,
            "byteOffset" : 49568
        },
        {
            "buffer" : 0,
            "byteLength" : 576,
            "byteOffset" : 49712
        },
        {
            "buffer" : 0,
            "byteLength" : 576,
            "byteOffset" : 50288
        },
        {
            "buffer" : 0,
            "byteLength" : 384,
            "byteOffset" : 50864
        },
        {
            "buffer" : 0,
            "byteLength" : 168,
            "byteOffset" : 51248
        },
        {
            "buffer" : 0,
            "byteLength" : 792,
            "byteOffset" : 51416
        },
        {
            "buffer" : 0,
            "byteLength" : 792,
            "byteOffset" : 52208
        },
        {
            "buffer" : 0,
            "byteLength" : 528,
            "byteOffset" : 53000
        },
        {
            "buffer" : 0,
            "byteLength" : 240,
            "byteOffset" : 53528
        },
        {
            "buffer" : 0,
            "byteLength" : 5472,
            "byteOffset" : 53768
        },
        {
            "buffer" : 0,
            "byteLength" : 5472,
            "byteOffset" : 59240
        },
        {
            "buffer" : 0,
            "byteLength" : 3648,
            "byteOffset" : 64712
        },
        {
            "buffer" : 0,
            "byteLength" : 1368,
            "byteOffset" : 68360
        }
    ],
    "buffers" : [
        {
            "byteLength" : 69728,
            "uri" : "models.bin"
        }
    ]
}
