# Blender v2.90.1 OBJ File: 'Regular_Icosahedron.blend'
# www.blender.org
mtllib Regular_Icosahedron.mtl
o Full_Icosahedron_GD_mesh.001
v -0.002600 0.999965 -0.001804
v -0.002600 0.447179 0.892623
v 0.848051 0.447179 0.274589
v 0.523131 0.447179 -0.725411
v -0.528331 0.447179 -0.725411
v -0.853251 0.447179 0.274589
v 0.523131 -0.447248 0.721803
v 0.848051 -0.447248 -0.278197
v -0.002600 -0.447248 -0.896231
v -0.853251 -0.447248 -0.278197
v -0.528331 -0.447248 0.721803
v -0.002600 -1.000035 -0.001804
vt 0.801606 0.000000
vt 0.864684 0.244227
vt 0.597482 0.126736
vt 0.531831 1.000000
vt 0.500000 0.748850
vt 0.750000 0.904069
vt 0.750000 0.748850
vt 1.000000 0.904069
vt 0.781830 1.000000
vt 1.000000 0.593630
vt 0.781831 0.497699
vt 0.636466 0.434331
vt 0.864684 0.497699
vt 0.750000 0.593630
vt 0.531830 0.497699
vt 0.432342 0.497699
vt 0.204124 0.434331
vt 0.432342 0.244227
vt 0.165140 0.126736
vt 0.000000 0.307595
vt 0.250000 0.904069
vt 0.000000 0.748850
vt 0.250000 0.593630
vt 0.031830 1.000000
vt 0.432342 0.307595
vt 0.500000 0.593630
vt 0.500000 0.904069
vt 0.250000 0.748850
vt 0.281831 1.000000
vt 0.369264 0.000000
vt 0.031831 0.497699
vt 0.281831 0.497699
vn -0.3568 -0.7947 -0.4911
vn -0.5774 -0.7947 0.1876
vn 0.0000 -0.7947 0.6071
vn 0.5774 -0.7947 0.1876
vn 0.3568 -0.7947 -0.4911
vn -0.5774 -0.1876 -0.7947
vn -0.9342 0.1876 -0.3035
vn -0.9342 -0.1876 0.3035
vn -0.5774 0.1876 0.7947
vn 0.0000 -0.1876 0.9822
vn 0.5774 0.1876 0.7947
vn 0.9342 -0.1876 0.3035
vn 0.9342 0.1876 -0.3035
vn 0.5774 -0.1876 -0.7947
vn 0.0000 0.1876 -0.9822
vn -0.5774 0.7947 -0.1876
vn -0.3568 0.7947 0.4911
vn 0.3568 0.7947 0.4911
vn 0.5774 0.7947 -0.1876
vn 0.0000 0.7947 -0.6071
usemtl Material.001
s off
f 1/1/1 3/2/1 2/3/1
f 1/4/2 4/5/2 3/6/2
f 1/7/3 5/8/3 4/9/3
f 1/7/4 6/10/4 5/8/4
f 1/7/5 2/11/5 6/10/5
f 2/3/6 3/2/6 7/12/6
f 3/2/7 8/13/7 7/12/7
f 3/6/8 4/5/8 8/14/8
f 4/5/9 9/15/9 8/14/9
f 4/16/10 5/17/10 9/18/10
f 5/17/11 10/19/11 9/18/11
f 5/17/12 6/20/12 10/19/12
f 6/21/13 11/22/13 10/23/13
f 6/21/14 2/24/14 11/22/14
f 2/3/15 7/12/15 11/25/15
f 7/26/16 8/27/16 12/28/16
f 8/27/17 9/29/17 12/28/17
f 9/18/18 10/19/18 12/30/18
f 10/23/19 11/22/19 12/31/19
f 11/32/20 7/26/20 12/28/20
