# Blender v2.90.1 OBJ File: ''
# www.blender.org
mtllib EdgeMeshPlane.mtl
o Plane
v -1.000000 0.000000 1.000000
v 1.000000 0.000000 1.000000
v -1.000000 0.000000 -1.000000
v 1.000000 0.000000 -1.000000
v -1.000000 0.000000 -0.333333
v -1.000000 0.000000 0.333333
v -0.333333 0.000000 1.000000
v 0.333333 0.000000 1.000000
v 1.000000 0.000000 0.333333
v 1.000000 0.000000 -0.333333
v 0.333333 0.000000 -1.000000
v -0.333333 0.000000 -1.000000
v -0.333333 0.000000 0.333333
v -0.333333 0.000000 -0.333333
v 0.333333 0.000000 0.333333
v 0.333333 0.000000 -0.333333
v -1.000000 0.000000 0.555556
v -1.000000 0.000000 0.777778
v 0.555556 0.000000 1.000000
v 0.777778 0.000000 1.000000
v 1.000000 0.000000 -0.555556
v 1.000000 0.000000 -0.777778
v -0.555556 0.000000 -1.000000
v -0.777778 0.000000 -1.000000
v -1.000000 0.000000 -0.777778
v -1.000000 0.000000 -0.555556
v -1.000000 0.000000 -0.111111
v -1.000000 0.000000 0.111111
v -0.777778 0.000000 1.000000
v -0.555556 0.000000 1.000000
v -0.111111 0.000000 1.000000
v 0.111111 0.000000 1.000000
v 1.000000 0.000000 0.777778
v 1.000000 0.000000 0.555556
v 1.000000 0.000000 0.111111
v 1.000000 0.000000 -0.111111
v 0.777778 0.000000 -1.000000
v 0.555556 0.000000 -1.000000
v 0.111111 0.000000 -1.000000
v -0.111111 0.000000 -1.000000
v -0.333333 0.000000 -0.555556
v -0.333333 0.000000 -0.777778
v -0.333333 0.000000 0.777778
v -0.333333 0.000000 0.555556
v 0.333333 0.000000 -0.555556
v 0.333333 0.000000 -0.777778
v 0.333333 0.000000 0.777778
v 0.333333 0.000000 0.555556
v -0.555556 0.000000 0.333333
v -0.777778 0.000000 0.333333
v -0.555556 0.000000 -0.333333
v -0.777778 0.000000 -0.333333
v 0.777778 0.000000 0.333333
v 0.555556 0.000000 0.333333
v 0.777778 0.000000 -0.333333
v 0.555556 0.000000 -0.333333
v 0.555556 0.000000 0.777778
v 0.555556 0.000000 0.555556
v 0.777778 0.000000 0.777778
v 0.777778 0.000000 0.555556
v -0.777778 0.000000 0.777778
v -0.777778 0.000000 0.555556
v -0.555556 0.000000 0.777778
v -0.555556 0.000000 0.555556
v -0.777778 0.000000 -0.555556
v -0.777778 0.000000 -0.777778
v -0.555556 0.000000 -0.555556
v -0.555556 0.000000 -0.777778
v 0.555556 0.000000 -0.555556
v 0.555556 0.000000 -0.777778
v 0.777778 0.000000 -0.555556
v 0.777778 0.000000 -0.777778
v -1.000000 0.000000 0.888889
v 0.888889 0.000000 1.000000
v 1.000000 0.000000 -0.888889
v -0.888889 0.000000 -1.000000
v -1.000000 0.000000 -0.444444
v -1.000000 0.000000 0.222222
v -0.444444 0.000000 1.000000
v 0.222222 0.000000 1.000000
v 1.000000 0.000000 0.444444
v 1.000000 0.000000 -0.222222
v 0.444444 0.000000 -1.000000
v -0.222222 0.000000 -1.000000
v -0.333333 0.000000 -0.888889
v -0.333333 0.000000 0.444444
v 0.333333 0.000000 -0.888889
v 0.333333 0.000000 0.444444
v -0.888889 0.000000 0.333333
v -0.888889 0.000000 -0.333333
v 0.444444 0.000000 0.333333
v 0.444444 0.000000 -0.333333
v -1.000000 0.000000 0.444444
v -1.000000 0.000000 0.666667
v 0.444444 0.000000 1.000000
v 0.666667 0.000000 1.000000
v 1.000000 0.000000 -0.444444
v 1.000000 0.000000 -0.666667
v -0.444444 0.000000 -1.000000
v -0.666667 0.000000 -1.000000
v -1.000000 0.000000 -0.888889
v -1.000000 0.000000 -0.666667
v -1.000000 0.000000 -0.222222
v -1.000000 0.000000 0.000000
v -0.888889 0.000000 1.000000
v -0.666667 0.000000 1.000000
v -0.222222 0.000000 1.000000
v 0.000000 0.000000 1.000000
v 1.000000 0.000000 0.888889
v 1.000000 0.000000 0.666667
v 1.000000 0.000000 0.222222
v 1.000000 0.000000 0.000000
v 0.888889 0.000000 -1.000000
v 0.666667 0.000000 -1.000000
v 0.222222 0.000000 -1.000000
v 0.000000 0.000000 -1.000000
v -0.333333 0.000000 -0.444444
v -0.333333 0.000000 -0.666667
v -0.333333 0.000000 0.888889
v -0.333333 0.000000 0.666667
v 0.333333 0.000000 -0.444444
v 0.333333 0.000000 -0.666667
v 0.333333 0.000000 0.888889
v 0.333333 0.000000 0.666667
v -0.444444 0.000000 0.333333
v -0.666667 0.000000 0.333333
v -0.444444 0.000000 -0.333333
v -0.666667 0.000000 -0.333333
v 0.888889 0.000000 0.333333
v 0.666667 0.000000 0.333333
v 0.888889 0.000000 -0.333333
v 0.666667 0.000000 -0.333333
v 0.888889 0.000000 0.222222
v 0.888889 0.000000 -0.222222
v 0.555556 0.000000 0.000000
v 0.777778 0.000000 0.000000
v 0.555556 0.000000 0.444444
v 0.555556 0.000000 0.888889
v 0.555556 0.000000 0.666667
v 0.777778 0.000000 0.444444
v 0.777778 0.000000 0.888889
v 0.777778 0.000000 0.666667
v 0.444444 0.000000 0.777778
v 0.444444 0.000000 0.555556
v 0.666667 0.000000 0.777778
v 0.666667 0.000000 0.555556
v 0.888889 0.000000 0.777778
v 0.888889 0.000000 0.555556
v -0.222222 0.000000 0.888889
v 0.222222 0.000000 0.888889
v 0.000000 0.000000 0.555556
v 0.000000 0.000000 0.777778
v -0.888889 0.000000 -0.222222
v -0.888889 0.000000 0.222222
v -0.555556 0.000000 0.000000
v -0.777778 0.000000 0.000000
v -0.777778 0.000000 0.444444
v -0.777778 0.000000 0.888889
v -0.777778 0.000000 0.666667
v -0.555556 0.000000 0.444444
v -0.555556 0.000000 0.888889
v -0.555556 0.000000 0.666667
v -0.888889 0.000000 0.777778
v -0.888889 0.000000 0.555556
v -0.666667 0.000000 0.777778
v -0.666667 0.000000 0.555556
v -0.444444 0.000000 0.777778
v -0.444444 0.000000 0.555556
v 0.222222 0.000000 -0.888889
v -0.222222 0.000000 -0.888889
v 0.000000 0.000000 -0.555556
v 0.000000 0.000000 -0.777778
v -0.777778 0.000000 -0.888889
v -0.777778 0.000000 -0.444444
v -0.777778 0.000000 -0.666667
v -0.555556 0.000000 -0.888889
v -0.555556 0.000000 -0.444444
v -0.555556 0.000000 -0.666667
v -0.888889 0.000000 -0.555556
v -0.888889 0.000000 -0.777778
v -0.666667 0.000000 -0.555556
v -0.666667 0.000000 -0.777778
v -0.444444 0.000000 -0.555556
v -0.444444 0.000000 -0.777778
v 0.555556 0.000000 -0.888889
v 0.555556 0.000000 -0.444444
v 0.555556 0.000000 -0.666667
v 0.777778 0.000000 -0.888889
v 0.777778 0.000000 -0.444444
v 0.777778 0.000000 -0.666667
v 0.444444 0.000000 -0.555556
v 0.444444 0.000000 -0.777778
v 0.666667 0.000000 -0.555556
v 0.666667 0.000000 -0.777778
v 0.888889 0.000000 -0.555556
v 0.888889 0.000000 -0.777778
v 0.888889 0.000000 -0.666667
v 0.888889 0.000000 -0.444444
v 0.666667 0.000000 -0.666667
v 0.666667 0.000000 -0.444444
v 0.444444 0.000000 -0.666667
v 0.444444 0.000000 -0.444444
v 0.666667 0.000000 -0.888889
v 0.444444 0.000000 -0.888889
v -0.444444 0.000000 -0.666667
v -0.444444 0.000000 -0.444444
v -0.666667 0.000000 -0.666667
v -0.666667 0.000000 -0.444444
v -0.888889 0.000000 -0.666667
v -0.888889 0.000000 -0.444444
v -0.666667 0.000000 -0.888889
v -0.888889 0.000000 -0.888889
v 0.000000 0.000000 -0.666667
v 0.000000 0.000000 -0.888889
v -0.444444 0.000000 0.666667
v -0.444444 0.000000 0.888889
v -0.666667 0.000000 0.666667
v -0.666667 0.000000 0.888889
v -0.888889 0.000000 0.666667
v -0.888889 0.000000 0.888889
v -0.666667 0.000000 0.444444
v -0.888889 0.000000 0.444444
v -0.666667 0.000000 0.000000
v -0.888889 0.000000 0.000000
v 0.000000 0.000000 0.666667
v 0.000000 0.000000 0.888889
v 0.888889 0.000000 0.666667
v 0.888889 0.000000 0.888889
v 0.666667 0.000000 0.666667
v 0.666667 0.000000 0.888889
v 0.444444 0.000000 0.666667
v 0.444444 0.000000 0.888889
v 0.666667 0.000000 0.444444
v 0.444444 0.000000 0.444444
v 0.666667 0.000000 0.000000
v 0.888889 0.000000 0.000000
v 0.888889 0.000000 0.444444
v -0.444444 0.000000 0.444444
v -0.444444 0.000000 -0.888889
v 0.888889 0.000000 -0.888889
vt 0.944444 0.944444
vt 1.000000 0.944444
vt 1.000000 1.000000
vt 0.944444 1.000000
vt 0.277778 0.944444
vt 0.333333 0.944444
vt 0.333333 1.000000
vt 0.277778 1.000000
vt 0.555555 1.000000
vt 0.611111 0.944444
vt 0.611111 1.000000
vt 0.277778 0.277778
vt 0.333333 0.277778
vt 0.333333 0.333333
vt 0.277778 0.333333
vt 0.000000 0.555555
vt 0.055556 0.611111
vt 0.000000 0.611111
vt 0.333333 0.000000
vt 0.388889 0.000000
vt 0.333333 0.055556
vt 0.666667 0.333333
vt 0.666667 0.666667
vt 0.333333 0.666667
vt 0.944444 0.277778
vt 1.000000 0.277778
vt 1.000000 0.333333
vt 0.944444 0.333333
vt 1.000000 0.444444
vt 0.944444 0.388889
vt 1.000000 0.388889
vt 0.944444 0.500000
vt 1.000000 0.500000
vt 1.000000 0.555556
vt 0.944444 0.611111
vt 0.888889 0.666667
vt 0.944444 0.666667
vt 0.722222 0.333333
vt 0.777778 0.333333
vt 0.777778 0.500000
vt 0.833333 0.500000
vt 0.888889 0.500000
vt 0.833333 0.666667
vt 0.722222 0.277778
vt 0.777778 0.277778
vt 0.833333 0.277778
vt 0.888889 0.277778
vt 0.888889 0.333333
vt 0.833333 0.333333
vt 0.722222 0.055556
vt 0.777778 0.055556
vt 0.777778 0.111111
vt 0.722222 0.111111
vt 0.722222 0.166667
vt 0.777778 0.166667
vt 0.777778 0.222222
vt 0.722222 0.222222
vt 0.833333 0.055556
vt 0.888889 0.055556
vt 0.888889 0.111111
vt 0.833333 0.111111
vt 0.833333 0.166667
vt 0.888889 0.166667
vt 0.888889 0.222222
vt 0.833333 0.222222
vt 0.944444 0.055556
vt 1.000000 0.055556
vt 1.000000 0.111111
vt 0.944444 0.111111
vt 0.944444 0.166667
vt 1.000000 0.166667
vt 1.000000 0.222222
vt 0.944444 0.222222
vt 0.500000 0.055556
vt 0.611111 0.055556
vt 0.666667 0.111111
vt 0.500000 0.111111
vt 0.555556 0.000000
vt 0.611111 0.000000
vt 0.333333 0.222222
vt 0.500000 0.222222
vt 0.500000 0.166667
vt 0.666667 0.166667
vt 0.666667 0.222222
vt 0.055556 0.500000
vt 0.111111 0.500000
vt 0.111111 0.666667
vt 0.000000 0.333333
vt 0.055556 0.333333
vt 0.000000 0.388889
vt 0.222222 0.500000
vt 0.277778 0.666667
vt 0.222222 0.666667
vt 0.166667 0.500000
vt 0.166667 0.666667
vt 0.055556 0.277778
vt 0.111111 0.277778
vt 0.111111 0.333333
vt 0.166667 0.277778
vt 0.222222 0.277778
vt 0.222222 0.333333
vt 0.166667 0.333333
vt 0.055556 0.055556
vt 0.111111 0.055556
vt 0.111111 0.111111
vt 0.055556 0.111111
vt 0.055556 0.166667
vt 0.111111 0.166667
vt 0.111111 0.222222
vt 0.055556 0.222222
vt 0.166667 0.055556
vt 0.222222 0.055556
vt 0.222222 0.111111
vt 0.166667 0.111111
vt 0.166667 0.166667
vt 0.222222 0.166667
vt 0.222222 0.222222
vt 0.166667 0.222222
vt 0.277778 0.055556
vt 0.333333 0.111111
vt 0.277778 0.111111
vt 0.277778 0.166667
vt 0.333333 0.166667
vt 0.277778 0.222222
vt 0.500000 0.944444
vt 0.500000 1.000000
vt 0.333333 0.888889
vt 0.388889 0.944444
vt 0.500000 0.777778
vt 0.666667 0.722222
vt 0.666667 0.777778
vt 0.500000 0.833333
vt 0.666667 0.833333
vt 0.666667 0.888889
vt 0.500000 0.888889
vt 0.055556 0.944444
vt 0.111111 0.944444
vt 0.111111 1.000000
vt 0.055556 1.000000
vt 0.166667 0.944444
vt 0.222222 0.944444
vt 0.222222 1.000000
vt 0.166667 1.000000
vt 0.055556 0.722222
vt 0.111111 0.722222
vt 0.111111 0.777778
vt 0.055556 0.777778
vt 0.055556 0.833333
vt 0.111111 0.833333
vt 0.111111 0.888889
vt 0.055556 0.888889
vt 0.166667 0.722222
vt 0.222222 0.722222
vt 0.222222 0.777778
vt 0.166667 0.777778
vt 0.166667 0.833333
vt 0.222222 0.833333
vt 0.222222 0.888889
vt 0.166667 0.888889
vt 0.277778 0.722222
vt 0.333333 0.722222
vt 0.333333 0.777778
vt 0.277778 0.777778
vt 0.277778 0.833333
vt 0.333333 0.833333
vt 0.277778 0.888889
vt 0.722222 0.944444
vt 0.777778 0.944444
vt 0.777778 1.000000
vt 0.722222 1.000000
vt 0.833333 0.944444
vt 0.888889 0.944444
vt 0.888889 1.000000
vt 0.833333 1.000000
vt 0.722222 0.722222
vt 0.777778 0.722222
vt 0.777778 0.777778
vt 0.722222 0.777778
vt 0.722222 0.833333
vt 0.777778 0.833333
vt 0.777778 0.888889
vt 0.722222 0.888889
vt 0.833333 0.722222
vt 0.888889 0.722222
vt 0.888889 0.777778
vt 0.833333 0.777778
vt 0.833333 0.833333
vt 0.888889 0.833333
vt 0.888889 0.888889
vt 0.833333 0.888889
vt 0.944444 0.722222
vt 1.000000 0.722222
vt 1.000000 0.777778
vt 0.944444 0.777778
vt 0.944444 0.833333
vt 1.000000 0.833333
vt 1.000000 0.888889
vt 0.944444 0.888889
vt 1.000000 0.666667
vt 0.777778 0.666667
vt 0.722222 0.666667
vt 0.666667 0.944444
vt 0.666667 1.000000
vt 0.000000 0.833333
vt 0.000000 0.888889
vt 0.000000 0.777778
vt 0.000000 0.722222
vt 0.000000 0.666667
vt 0.055556 0.666667
vt 0.000000 0.944444
vt 0.000000 1.000000
vt 0.388889 1.000000
vt 0.444444 1.000000
vt 0.222222 0.000000
vt 0.277778 0.000000
vt 0.111111 0.000000
vt 0.166667 0.000000
vt 0.000000 0.166667
vt 0.000000 0.222222
vt 0.000000 0.111111
vt 0.000000 0.055556
vt 0.000000 0.000000
vt 0.055556 0.000000
vt 0.000000 0.277778
vt 0.055556 0.388889
vt 0.000000 0.444444
vt 0.000000 0.500000
vt 0.666667 0.277778
vt 0.666667 0.055556
vt 0.666667 0.000000
vt 0.388889 0.055556
vt 0.444444 0.000000
vt 0.500000 0.000000
vt 0.888889 0.000000
vt 0.944444 0.000000
vt 1.000000 0.000000
vt 0.777778 0.000000
vt 0.833333 0.000000
vt 0.722222 0.000000
vt 1.000000 0.611111
vn 0.0000 1.0000 0.0000
usemtl None
s off
f 240/1/1 75/2/1 4/3/1 113/4/1
f 239/5/1 85/6/1 12/7/1 99/8/1
f 39/9/1 169/10/1 115/11/1
f 238/12/1 86/13/1 13/14/1 125/15/1
f 27/16/1 153/17/1 103/18/1
f 7/19/1 107/20/1 119/21/1
f 13/14/1 15/22/1 16/23/1 14/24/1
f 237/25/1 81/26/1 9/27/1 129/28/1
f 35/29/1 133/30/1 111/31/1
f 236/32/1 112/33/1 36/34/1 134/35/1
f 55/36/1 134/35/1 131/37/1
f 91/38/1 54/39/1 135/40/1
f 235/41/1 136/42/1 55/36/1 132/43/1
f 234/44/1 137/45/1 54/39/1 91/38/1
f 233/46/1 140/47/1 53/48/1 130/49/1
f 232/50/1 138/51/1 57/52/1 143/53/1
f 231/54/1 139/55/1 58/56/1 144/57/1
f 230/58/1 141/59/1 59/60/1 145/61/1
f 229/62/1 142/63/1 60/64/1 146/65/1
f 228/66/1 109/67/1 33/68/1 147/69/1
f 227/70/1 110/71/1 34/72/1 148/73/1
f 226/74/1 150/75/1 47/76/1 152/77/1
f 32/78/1 80/79/1 150/75/1
f 44/80/1 151/81/1 86/13/1
f 225/82/1 124/83/1 48/84/1 151/81/1
f 224/85/1 156/86/1 52/87/1 153/17/1
f 6/88/1 89/89/1 78/90/1
f 155/91/1 127/92/1 51/93/1
f 223/94/1 155/91/1 51/93/1 128/95/1
f 222/96/1 157/97/1 50/98/1 89/89/1
f 221/99/1 160/100/1 49/101/1 126/102/1
f 220/103/1 158/104/1 61/105/1 163/106/1
f 219/107/1 159/108/1 62/109/1 164/110/1
f 218/111/1 161/112/1 63/113/1 165/114/1
f 217/115/1 162/116/1 64/117/1 166/118/1
f 216/119/1 119/21/1 43/120/1 167/121/1
f 215/122/1 120/123/1 44/80/1 168/124/1
f 214/125/1 169/10/1 39/9/1 116/126/1
f 42/127/1 170/128/1 85/6/1
f 171/129/1 121/130/1 45/131/1
f 213/132/1 122/133/1 46/134/1 172/135/1
f 212/136/1 173/137/1 24/138/1 76/139/1
f 211/140/1 176/141/1 23/142/1 100/143/1
f 210/144/1 174/145/1 65/146/1 179/147/1
f 209/148/1 175/149/1 66/150/1 180/151/1
f 208/152/1 177/153/1 67/154/1 181/155/1
f 207/156/1 178/157/1 68/158/1 182/159/1
f 206/160/1 117/161/1 41/162/1 183/163/1
f 205/164/1 118/165/1 42/127/1 184/166/1
f 204/167/1 185/168/1 38/169/1 83/170/1
f 203/171/1 188/172/1 37/173/1 114/174/1
f 202/175/1 186/176/1 69/177/1 191/178/1
f 201/179/1 187/180/1 70/181/1 192/182/1
f 200/183/1 189/184/1 71/185/1 193/186/1
f 199/187/1 190/188/1 72/189/1 194/190/1
f 198/191/1 97/192/1 21/193/1 195/194/1
f 197/195/1 98/196/1 22/197/1 196/198/1
f 190/188/1 197/195/1 196/198/1 72/189/1
f 71/185/1 195/194/1 197/195/1 190/188/1
f 195/194/1 21/193/1 98/196/1 197/195/1
f 189/184/1 198/191/1 195/194/1 71/185/1
f 55/36/1 131/37/1 198/191/1 189/184/1
f 131/37/1 10/199/1 97/192/1 198/191/1
f 187/180/1 199/187/1 194/190/1 70/181/1
f 69/177/1 193/186/1 199/187/1 187/180/1
f 193/186/1 71/185/1 190/188/1 199/187/1
f 186/176/1 200/183/1 193/186/1 69/177/1
f 56/200/1 132/43/1 200/183/1 186/176/1
f 132/43/1 55/36/1 189/184/1 200/183/1
f 122/133/1 201/179/1 192/182/1 46/134/1
f 45/131/1 191/178/1 201/179/1 122/133/1
f 191/178/1 69/177/1 187/180/1 201/179/1
f 121/130/1 202/175/1 191/178/1 45/131/1
f 16/23/1 92/201/1 202/175/1 121/130/1
f 92/201/1 56/200/1 186/176/1 202/175/1
f 185/168/1 203/171/1 114/174/1 38/169/1
f 70/181/1 194/190/1 203/171/1 185/168/1
f 194/190/1 72/189/1 188/172/1 203/171/1
f 87/202/1 204/167/1 83/170/1 11/203/1
f 46/134/1 192/182/1 204/167/1 87/202/1
f 192/182/1 70/181/1 185/168/1 204/167/1
f 178/157/1 205/164/1 184/166/1 68/158/1
f 67/154/1 183/163/1 205/164/1 178/157/1
f 183/163/1 41/162/1 118/165/1 205/164/1
f 177/153/1 206/160/1 183/163/1 67/154/1
f 51/93/1 127/92/1 206/160/1 177/153/1
f 127/92/1 14/24/1 117/161/1 206/160/1
f 175/149/1 207/156/1 182/159/1 66/150/1
f 65/146/1 181/155/1 207/156/1 175/149/1
f 181/155/1 67/154/1 178/157/1 207/156/1
f 174/145/1 208/152/1 181/155/1 65/146/1
f 52/87/1 128/95/1 208/152/1 174/145/1
f 128/95/1 51/93/1 177/153/1 208/152/1
f 102/204/1 209/148/1 180/151/1 25/205/1
f 26/206/1 179/147/1 209/148/1 102/204/1
f 179/147/1 65/146/1 175/149/1 209/148/1
f 77/207/1 210/144/1 179/147/1 26/206/1
f 5/208/1 90/209/1 210/144/1 77/207/1
f 90/209/1 52/87/1 174/145/1 210/144/1
f 173/137/1 211/140/1 100/143/1 24/138/1
f 66/150/1 182/159/1 211/140/1 173/137/1
f 182/159/1 68/158/1 176/141/1 211/140/1
f 101/210/1 212/136/1 76/139/1 3/211/1
f 25/205/1 180/151/1 212/136/1 101/210/1
f 180/151/1 66/150/1 173/137/1 212/136/1
f 118/165/1 213/132/1 172/135/1 42/127/1
f 41/162/1 171/129/1 213/132/1 118/165/1
f 171/129/1 45/131/1 122/133/1 213/132/1
f 117/161/1 121/130/1 171/129/1
f 117/161/1 171/129/1 41/162/1
f 14/24/1 16/23/1 121/130/1 117/161/1
f 85/6/1 84/212/1 12/7/1
f 85/6/1 170/128/1 84/212/1
f 170/128/1 40/213/1 84/212/1
f 170/128/1 214/125/1 116/126/1 40/213/1
f 42/127/1 172/135/1 214/125/1 170/128/1
f 172/135/1 46/134/1 169/10/1 214/125/1
f 162/116/1 215/122/1 168/124/1 64/117/1
f 63/113/1 167/121/1 215/122/1 162/116/1
f 167/121/1 43/120/1 120/123/1 215/122/1
f 161/112/1 216/119/1 167/121/1 63/113/1
f 30/214/1 79/215/1 216/119/1 161/112/1
f 79/215/1 7/19/1 119/21/1 216/119/1
f 159/108/1 217/115/1 166/118/1 62/109/1
f 61/105/1 165/114/1 217/115/1 159/108/1
f 165/114/1 63/113/1 162/116/1 217/115/1
f 158/104/1 218/111/1 165/114/1 61/105/1
f 29/216/1 106/217/1 218/111/1 158/104/1
f 106/217/1 30/214/1 161/112/1 218/111/1
f 94/218/1 219/107/1 164/110/1 17/219/1
f 18/220/1 163/106/1 219/107/1 94/218/1
f 163/106/1 61/105/1 159/108/1 219/107/1
f 73/221/1 220/103/1 163/106/1 18/220/1
f 1/222/1 105/223/1 220/103/1 73/221/1
f 105/223/1 29/216/1 158/104/1 220/103/1
f 157/97/1 221/99/1 126/102/1 50/98/1
f 62/109/1 166/118/1 221/99/1 157/97/1
f 166/118/1 64/117/1 160/100/1 221/99/1
f 93/224/1 222/96/1 89/89/1 6/88/1
f 17/219/1 164/110/1 222/96/1 93/224/1
f 164/110/1 62/109/1 157/97/1 222/96/1
f 156/86/1 223/94/1 128/95/1 52/87/1
f 50/98/1 126/102/1 223/94/1 156/86/1
f 126/102/1 49/101/1 155/91/1 223/94/1
f 155/91/1 125/15/1 127/92/1
f 49/101/1 125/15/1 155/91/1
f 125/15/1 13/14/1 14/24/1 127/92/1
f 78/90/1 154/225/1 28/226/1
f 78/90/1 89/89/1 154/225/1
f 89/89/1 50/98/1 154/225/1
f 104/227/1 224/85/1 153/17/1 27/16/1
f 28/226/1 154/225/1 224/85/1 104/227/1
f 154/225/1 50/98/1 156/86/1 224/85/1
f 120/123/1 225/82/1 151/81/1 44/80/1
f 43/120/1 152/77/1 225/82/1 120/123/1
f 152/77/1 47/76/1 124/83/1 225/82/1
f 86/13/1 151/81/1 88/228/1
f 151/81/1 48/84/1 88/228/1
f 13/14/1 86/13/1 88/228/1 15/22/1
f 150/75/1 123/229/1 47/76/1
f 150/75/1 80/79/1 123/229/1
f 80/79/1 8/230/1 123/229/1
f 149/231/1 226/74/1 152/77/1 43/120/1
f 31/232/1 108/233/1 226/74/1 149/231/1
f 108/233/1 32/78/1 150/75/1 226/74/1
f 142/63/1 227/70/1 148/73/1 60/64/1
f 59/60/1 147/69/1 227/70/1 142/63/1
f 147/69/1 33/68/1 110/71/1 227/70/1
f 141/59/1 228/66/1 147/69/1 59/60/1
f 20/234/1 74/235/1 228/66/1 141/59/1
f 74/235/1 2/236/1 109/67/1 228/66/1
f 139/55/1 229/62/1 146/65/1 58/56/1
f 57/52/1 145/61/1 229/62/1 139/55/1
f 145/61/1 59/60/1 142/63/1 229/62/1
f 138/51/1 230/58/1 145/61/1 57/52/1
f 19/237/1 96/238/1 230/58/1 138/51/1
f 96/238/1 20/234/1 141/59/1 230/58/1
f 124/83/1 231/54/1 144/57/1 48/84/1
f 47/76/1 143/53/1 231/54/1 124/83/1
f 143/53/1 57/52/1 139/55/1 231/54/1
f 123/229/1 232/50/1 143/53/1 47/76/1
f 8/230/1 95/239/1 232/50/1 123/229/1
f 95/239/1 19/237/1 138/51/1 232/50/1
f 137/45/1 233/46/1 130/49/1 54/39/1
f 58/56/1 146/65/1 233/46/1 137/45/1
f 146/65/1 60/64/1 140/47/1 233/46/1
f 88/228/1 234/44/1 91/38/1 15/22/1
f 48/84/1 144/57/1 234/44/1 88/228/1
f 144/57/1 58/56/1 137/45/1 234/44/1
f 135/40/1 235/41/1 132/43/1 56/200/1
f 54/39/1 130/49/1 235/41/1 135/40/1
f 130/49/1 53/48/1 136/42/1 235/41/1
f 91/38/1 135/40/1 92/201/1
f 92/201/1 135/40/1 56/200/1
f 15/22/1 91/38/1 92/201/1 16/23/1
f 131/37/1 82/240/1 10/199/1
f 131/37/1 134/35/1 82/240/1
f 134/35/1 36/34/1 82/240/1
f 136/42/1 236/32/1 134/35/1 55/36/1
f 53/48/1 133/30/1 236/32/1 136/42/1
f 133/30/1 35/29/1 112/33/1 236/32/1
f 111/31/1 129/28/1 9/27/1
f 111/31/1 133/30/1 129/28/1
f 133/30/1 53/48/1 129/28/1
f 140/47/1 237/25/1 129/28/1 53/48/1
f 60/64/1 148/73/1 237/25/1 140/47/1
f 148/73/1 34/72/1 81/26/1 237/25/1
f 119/21/1 149/231/1 43/120/1
f 119/21/1 107/20/1 149/231/1
f 107/20/1 31/232/1 149/231/1
f 103/18/1 90/209/1 5/208/1
f 103/18/1 153/17/1 90/209/1
f 153/17/1 52/87/1 90/209/1
f 160/100/1 238/12/1 125/15/1 49/101/1
f 64/117/1 168/124/1 238/12/1 160/100/1
f 168/124/1 44/80/1 86/13/1 238/12/1
f 115/11/1 87/202/1 11/203/1
f 115/11/1 169/10/1 87/202/1
f 169/10/1 46/134/1 87/202/1
f 176/141/1 239/5/1 99/8/1 23/142/1
f 68/158/1 184/166/1 239/5/1 176/141/1
f 184/166/1 42/127/1 85/6/1 239/5/1
f 188/172/1 240/1/1 113/4/1 37/173/1
f 72/189/1 196/198/1 240/1/1 188/172/1
f 196/198/1 22/197/1 75/2/1 240/1/1
