{
    "asset" : {
        "generator" : "Khronos glTF Blender I/O v1.7.33",
        "version" : "2.0"
    },
    "scene" : 0,
    "scenes" : [
        {
            "name" : "Scene",
            "nodes" : [
                0
            ]
        }
    ],
    "nodes" : [
        {
            "mesh" : 0,
            "name" : "SpaceGun"
        }
    ],
    "materials" : [
        {
            "doubleSided" : true,
            "name" : "MetallicBase",
            "pbrMetallicRoughness" : {
                "baseColorFactor" : [
                    0.23301535844802856,
                    0.23301535844802856,
                    0.23301535844802856,
                    1
                ],
                "metallicFactor" : 0.7244094610214233,
                "roughnessFactor" : 0.31889763474464417
            }
        },
        {
            "doubleSided" : true,
            "name" : "RedGlow",
            "pbrMetallicRoughness" : {
                "baseColorFactor" : [
                    0.8000000715255737,
                    0,
                    0.011247584596276283,
                    1
                ],
                "metallicFactor" : 0,
                "roughnessFactor" : 0.5
            }
        },
        {
            "doubleSided" : true,
            "name" : "HandleDecal",
            "pbrMetallicRoughness" : {
                "baseColorFactor" : [
                    0.8000000715255737,
                    0.3699702024459839,
                    0,
                    1
                ],
                "metallicFactor" : 0.4881890118122101,
                "roughnessFactor" : 0.7716535329818726
            }
        }
    ],
    "meshes" : [
        {
            "name" : "Cube.001",
            "primitives" : [
                {
                    "attributes" : {
                        "POSITION" : 0,
                        "NORMAL" : 1,
                        "TEXCOORD_0" : 2
                    },
                    "indices" : 3,
                    "material" : 0
                },
                {
                    "attributes" : {
                        "POSITION" : 4,
                        "NORMAL" : 5,
                        "TEXCOORD_0" : 6
                    },
                    "indices" : 7,
                    "material" : 1
                },
                {
                    "attributes" : {
                        "POSITION" : 8,
                        "NORMAL" : 9,
                        "TEXCOORD_0" : 10
                    },
                    "indices" : 11,
                    "material" : 2
                }
            ]
        }
    ],
    "accessors" : [
        {
            "bufferView" : 0,
            "componentType" : 5126,
            "count" : 1638,
            "max" : [
                0.025081679224967957,
                0.10720605403184891,
                0.19590061902999878
            ],
            "min" : [
                -0.025063788518309593,
                -0.04892818257212639,
                -0.03757470101118088
            ],
            "type" : "VEC3"
        },
        {
            "bufferView" : 1,
            "componentType" : 5126,
            "count" : 1638,
            "type" : "VEC3"
        },
        {
            "bufferView" : 2,
            "componentType" : 5126,
            "count" : 1638,
            "type" : "VEC2"
        },
        {
            "bufferView" : 3,
            "componentType" : 5123,
            "count" : 2382,
            "type" : "SCALAR"
        },
        {
            "bufferView" : 4,
            "componentType" : 5126,
            "count" : 37,
            "max" : [
                0.020649798214435577,
                0.08939559012651443,
                0.09454222023487091
            ],
            "min" : [
                -0.020621290430426598,
                0.07208790630102158,
                0.06624189764261246
            ],
            "type" : "VEC3"
        },
        {
            "bufferView" : 5,
            "componentType" : 5126,
            "count" : 37,
            "type" : "VEC3"
        },
        {
            "bufferView" : 6,
            "componentType" : 5126,
            "count" : 37,
            "type" : "VEC2"
        },
        {
            "bufferView" : 7,
            "componentType" : 5123,
            "count" : 51,
            "type" : "SCALAR"
        },
        {
            "bufferView" : 8,
            "componentType" : 5126,
            "count" : 25,
            "max" : [
                0.008281620219349861,
                0.036978572607040405,
                0.03462308645248413
            ],
            "min" : [
                -0.01132960058748722,
                -0.04267766326665878,
                -0.02473200112581253
            ],
            "type" : "VEC3"
        },
        {
            "bufferView" : 9,
            "componentType" : 5126,
            "count" : 25,
            "type" : "VEC3"
        },
        {
            "bufferView" : 10,
            "componentType" : 5126,
            "count" : 25,
            "type" : "VEC2"
        },
        {
            "bufferView" : 11,
            "componentType" : 5123,
            "count" : 39,
            "type" : "SCALAR"
        }
    ],
    "bufferViews" : [
        {
            "buffer" : 0,
            "byteLength" : 19656,
            "byteOffset" : 0
        },
        {
            "buffer" : 0,
            "byteLength" : 19656,
            "byteOffset" : 19656
        },
        {
            "buffer" : 0,
            "byteLength" : 13104,
            "byteOffset" : 39312
        },
        {
            "buffer" : 0,
            "byteLength" : 4764,
            "byteOffset" : 52416
        },
        {
            "buffer" : 0,
            "byteLength" : 444,
            "byteOffset" : 57180
        },
        {
            "buffer" : 0,
            "byteLength" : 444,
            "byteOffset" : 57624
        },
        {
            "buffer" : 0,
            "byteLength" : 296,
            "byteOffset" : 58068
        },
        {
            "buffer" : 0,
            "byteLength" : 102,
            "byteOffset" : 58364
        },
        {
            "buffer" : 0,
            "byteLength" : 300,
            "byteOffset" : 58468
        },
        {
            "buffer" : 0,
            "byteLength" : 300,
            "byteOffset" : 58768
        },
        {
            "buffer" : 0,
            "byteLength" : 200,
            "byteOffset" : 59068
        },
        {
            "buffer" : 0,
            "byteLength" : 78,
            "byteOffset" : 59268
        }
    ],
    "buffers" : [
        {
            "byteLength" : 59348,
            "uri" : "space_gun.bin"
        }
    ]
}
